<?xml version="1.0" standalone="no"?>
<!DOCTYPE svg PUBLIC "-//W3C//DTD SVG 20010904//EN"
 "http://www.w3.org/TR/2001/REC-SVG-20010904/DTD/svg10.dtd">
<svg version="1.0" xmlns="http://www.w3.org/2000/svg"
 width="512.000000pt" height="512.000000pt" viewBox="0 0 512.000000 512.000000"
 preserveAspectRatio="xMidYMid meet">

<g transform="translate(0.000000,512.000000) scale(0.100000,-0.100000)"
fill="currentColor" stroke="none">
<path d="M389 4296 c-74 -50 -69 63 -69 -1578 0 -1455 0 -1472 20 -1512 11
-23 32 -49 46 -60 15 -11 138 -46 288 -83 695 -171 909 -223 917 -223 5 0 9
679 9 1603 l0 1603 -127 32 c-71 17 -314 79 -541 137 -238 60 -433 105 -460
105 -34 0 -58 -7 -83 -24z"/>
<path d="M2545 4154 c-335 -67 -613 -123 -617 -124 -5 0 -8 -721 -8 -1601 0
-1520 1 -1601 18 -1597 9 2 297 60 640 129 l622 124 0 1597 0 1598 -22 -1
c-13 -1 -297 -57 -633 -125z"/>
<path d="M3520 2678 l0 -1603 545 -139 c582 -148 606 -152 663 -109 14 11 35
32 46 47 21 27 21 30 24 1513 2 1475 2 1487 -18 1527 -37 75 10 60 -827 265
-227 56 -417 101 -422 101 -8 0 -11 -487 -11 -1602z"/>
</g>
</svg>
