<?xml version="1.0" standalone="no"?>
<!DOCTYPE svg PUBLIC "-//W3C//DTD SVG 20010904//EN"
 "http://www.w3.org/TR/2001/REC-SVG-20010904/DTD/svg10.dtd">
<svg version="1.0" xmlns="http://www.w3.org/2000/svg"
 width="512.000000pt" height="512.000000pt" viewBox="0 0 512.000000 512.000000"
 preserveAspectRatio="xMidYMid meet">

<g transform="translate(0.000000,512.000000) scale(0.100000,-0.100000)"
fill="currentColor" stroke="none">
<path d="M3784 5106 c-227 -43 -399 -133 -553 -287 -133 -132 -219 -283 -269
-468 -35 -133 -37 -352 -5 -482 45 -177 125 -327 245 -454 l60 -65 -33 -12
c-59 -20 -251 -121 -327 -172 -40 -27 -74 -47 -76 -45 -2 2 -18 33 -36 69
-105 210 -300 394 -507 480 -148 62 -211 74 -398 74 -205 1 -280 -16 -450 -99
-382 -186 -604 -582 -564 -1003 21 -225 105 -415 266 -598 l53 -61 -47 -18
c-75 -28 -236 -111 -316 -162 -304 -194 -547 -465 -696 -776 -91 -189 -114
-263 -119 -388 -5 -131 8 -196 59 -299 76 -152 220 -268 384 -310 75 -19 111
-20 1005 -20 l927 0 44 23 c24 13 58 43 74 66 26 37 30 51 30 109 -1 86 -33
139 -108 177 l-51 25 -908 0 c-875 0 -910 1 -946 19 -122 63 -142 162 -69 341
194 473 628 819 1152 916 137 26 421 26 550 0 189 -38 360 -107 554 -225 72
-44 91 -51 135 -51 187 1 275 217 140 342 -57 52 -291 183 -397 221 -16 6 -11
16 38 70 134 147 222 320 254 502 7 39 15 80 17 92 5 25 119 124 225 194 367
245 857 311 1284 173 103 -33 236 -96 352 -166 104 -63 144 -74 205 -58 116
31 177 146 139 262 -7 20 -31 54 -55 76 -53 49 -212 143 -320 190 -44 19 -83
36 -85 38 -2 2 20 29 49 61 199 217 295 500 268 790 -11 129 -39 226 -98 348
-132 273 -379 473 -675 546 -104 26 -304 33 -401 15z m310 -406 c179 -46 326
-162 403 -320 52 -108 67 -171 66 -290 -3 -329 -274 -601 -603 -603 -116 -1
-180 13 -289 65 -192 91 -325 293 -338 513 -11 186 47 337 181 470 161 160
369 219 580 165z m-2061 -1366 c379 -98 575 -521 403 -869 -64 -129 -158 -221
-291 -285 -95 -45 -159 -60 -264 -60 -167 0 -310 60 -432 180 -126 125 -183
260 -183 435 0 176 54 304 179 431 86 87 183 144 287 170 75 18 228 17 301 -2z"/>
<path d="M4874 1890 c-77 -18 -91 -35 -605 -754 -281 -393 -516 -711 -531
-720 -31 -19 -74 -20 -105 -3 -12 7 -170 155 -352 329 -182 175 -345 325 -363
335 -42 22 -132 22 -174 0 -42 -22 -89 -77 -104 -122 -15 -45 -7 -115 17 -156
17 -28 556 -552 677 -658 125 -109 287 -158 434 -132 88 16 192 65 254 120 47
42 1034 1408 1071 1483 35 70 16 181 -39 229 -48 42 -125 63 -180 49z"/>
</g>
</svg>
