<?xml version="1.0" standalone="no"?>
<!DOCTYPE svg PUBLIC "-//W3C//DTD SVG 20010904//EN"
 "http://www.w3.org/TR/2001/REC-SVG-20010904/DTD/svg10.dtd">
<svg version="1.0" xmlns="http://www.w3.org/2000/svg"
 width="512.000000pt" height="512.000000pt" viewBox="0 0 512.000000 512.000000"
 preserveAspectRatio="xMidYMid meet">
<metadata>
Created by potrace 1.16, written by Peter Selinger 2001-2019
</metadata>
<g transform="translate(0.000000,512.000000) scale(0.100000,-0.100000)"
fill="currentColor" stroke="none">
<path d="M1096 5004 l-26 -27 0 -613 0 -614 -485 0 -486 0 -25 -25 c-14 -14
-36 -25 -49 -25 l-25 0 0 -1740 0 -1740 27 0 c14 0 34 -7 43 -15 15 -14 19
-13 36 6 19 21 19 63 22 1740 l2 1719 470 0 470 0 0 -1764 0 -1763 26 -27 27
-26 1437 0 1437 0 27 26 26 27 0 2018 0 2019 470 0 470 0 2 -1974 c3 -1928 3
-1974 22 -1995 17 -19 21 -20 36 -6 9 8 29 15 43 15 l27 0 0 2000 0 2000 -28
0 c-16 0 -37 9 -47 20 -18 19 -31 20 -507 20 l-488 0 0 359 0 358 -26 27 -27
26 -1437 0 -1437 0 -27 -26z m2874 -2444 l0 -2390 -430 0 -430 0 0 439 0 440
-24 28 -24 28 -502 0 -502 0 -24 -28 -24 -28 0 -440 0 -439 -430 0 -430 0 0
2390 0 2390 1410 0 1410 0 0 -2390z m-1450 -1960 l0 -430 -215 0 -215 0 0 430
0 430 215 0 215 0 0 -430z m510 0 l0 -430 -215 0 -215 0 0 430 0 430 215 0
215 0 0 -430z"/>
<path d="M1439 4661 l-29 -29 0 -232 c0 -234 3 -260 39 -287 12 -9 83 -12 257
-13 l241 0 27 25 26 24 0 244 0 244 -26 27 -27 26 -239 0 -240 0 -29 -29z
m481 -266 l0 -215 -215 0 -215 0 0 215 0 215 215 0 215 0 0 -215z"/>
<path d="M2295 4666 c-33 -34 -37 -65 -33 -305 l3 -213 28 -24 c28 -24 29 -24
267 -24 238 0 239 0 267 24 l28 24 3 213 c4 240 0 271 -33 305 -24 24 -24 24
-265 24 -241 0 -241 0 -265 -24z m485 -271 l0 -215 -220 0 -220 0 0 215 0 215
220 0 220 0 0 -215z"/>
<path d="M3146 4664 l-26 -27 0 -244 0 -244 26 -24 27 -25 241 0 c174 1 245 4
257 13 36 27 39 53 39 287 l0 232 -29 29 -29 29 -240 0 -239 0 -27 -26z m484
-269 l0 -215 -215 0 -215 0 0 215 0 215 215 0 215 0 0 -215z"/>
<path d="M1460 3827 c-46 -23 -50 -46 -50 -285 0 -232 6 -271 45 -286 9 -3
124 -6 256 -6 l240 0 24 25 25 24 0 244 0 244 -26 24 c-25 24 -27 24 -257 27
-174 2 -238 -1 -257 -11z m460 -282 l0 -215 -215 0 -215 0 0 215 0 215 215 0
215 0 0 -215z"/>
<path d="M2313 3825 c-49 -21 -55 -57 -51 -307 3 -213 3 -217 27 -242 l24 -26
247 0 247 0 24 26 c24 25 24 29 27 242 4 253 -2 286 -53 308 -48 20 -446 20
-492 -1z m467 -280 l0 -215 -220 0 -220 0 0 215 0 215 220 0 220 0 0 -215z"/>
<path d="M3180 3833 c-8 -3 -25 -15 -37 -26 -23 -20 -23 -24 -23 -264 l0 -244
25 -24 24 -25 246 0 c231 0 246 1 265 20 11 11 22 30 25 43 3 12 5 125 3 250
-3 220 -4 227 -26 249 -22 22 -28 23 -255 25 -127 1 -239 -1 -247 -4z m450
-288 l0 -215 -215 0 -215 0 0 215 0 215 215 0 215 0 0 -215z"/>
<path d="M1440 2960 c-11 -11 -22 -30 -25 -43 -3 -12 -5 -125 -3 -250 3 -220
4 -227 26 -249 22 -23 26 -23 266 -23 l244 0 26 24 26 24 0 244 0 244 -25 24
-24 25 -246 0 c-231 0 -246 -1 -265 -20z m480 -275 l0 -215 -215 0 -215 0 0
215 0 215 215 0 215 0 0 -215z"/>
<path d="M2289 2954 c-24 -25 -24 -29 -27 -242 -2 -140 0 -230 8 -254 18 -64
37 -68 290 -68 253 0 272 4 290 68 8 24 10 114 8 254 -3 213 -3 217 -27 242
l-24 26 -247 0 -247 0 -24 -26z m491 -269 l0 -215 -220 0 -220 0 0 215 0 215
220 0 220 0 0 -215z"/>
<path d="M3145 2955 l-25 -24 0 -244 0 -244 26 -24 26 -24 244 0 c240 0 244 0
266 23 22 22 23 29 26 249 2 125 0 238 -3 250 -3 13 -14 32 -25 43 -19 19 -34
20 -265 20 l-246 0 -24 -25z m485 -270 l0 -215 -215 0 -215 0 0 215 0 215 215
0 215 0 0 -215z"/>
<path d="M1439 2101 l-29 -29 0 -232 c0 -234 3 -260 39 -287 12 -9 83 -12 257
-13 l241 0 27 25 26 24 0 244 0 244 -26 27 -27 26 -239 0 -240 0 -29 -29z
m481 -266 l0 -215 -215 0 -215 0 0 215 0 215 215 0 215 0 0 -215z"/>
<path d="M2295 2106 c-33 -34 -37 -65 -33 -305 l3 -213 28 -24 c28 -24 29 -24
267 -24 238 0 239 0 267 24 l28 24 3 213 c4 240 0 271 -33 305 -24 24 -24 24
-265 24 -241 0 -241 0 -265 -24z m485 -271 l0 -215 -220 0 -220 0 0 215 0 215
220 0 220 0 0 -215z"/>
<path d="M3146 2104 l-26 -27 0 -244 0 -244 26 -24 27 -25 241 0 c174 1 245 4
257 13 36 27 39 53 39 287 l0 232 -29 29 -29 29 -240 0 -239 0 -27 -26z m484
-269 l0 -215 -215 0 -215 0 0 215 0 215 215 0 215 0 0 -215z"/>
<path d="M4339 3894 c-23 -25 -24 -30 -24 -185 0 -211 -7 -203 186 -207 159
-4 180 -1 209 30 18 20 20 35 20 180 0 155 -1 159 -25 183 -24 24 -28 25 -183
25 -157 0 -159 0 -183 -26z m311 -184 l0 -130 -130 0 -130 0 0 130 0 130 130
0 130 0 0 -130z"/>
<path d="M416 3385 c-51 -48 -19 -135 50 -135 75 0 110 82 58 134 -34 33 -73
34 -108 1z"/>
<path d="M756 3384 c-52 -52 -17 -134 58 -134 69 0 101 87 50 135 -35 33 -74
32 -108 -1z"/>
<path d="M4343 3216 l-28 -24 0 -162 0 -162 28 -24 c27 -23 34 -24 183 -24
151 0 156 1 179 25 24 24 25 27 25 182 -1 108 -4 163 -13 174 -25 33 -55 39
-201 39 -139 0 -146 -1 -173 -24z m307 -186 l0 -130 -130 0 -130 0 0 130 0
130 130 0 130 0 0 -130z"/>
<path d="M435 3058 c-77 -44 -50 -148 37 -148 84 0 106 108 31 148 -27 15 -42
15 -68 0z"/>
<path d="M775 3058 c-49 -28 -59 -78 -24 -122 43 -55 139 -21 139 50 -1 33
-15 55 -47 72 -27 15 -42 15 -68 0z"/>
<path d="M441 2719 c-55 -22 -69 -89 -26 -129 50 -47 135 -13 135 55 0 53 -60
93 -109 74z"/>
<path d="M790 2723 c-60 -22 -79 -92 -35 -133 73 -68 183 35 115 108 -12 12
-25 22 -30 22 -4 0 -14 2 -22 4 -7 3 -20 2 -28 -1z"/>
<path d="M4365 2546 c-17 -7 -36 -25 -43 -40 -15 -33 -16 -273 -2 -312 19 -50
33 -53 203 -54 155 0 158 1 182 25 24 24 25 28 25 183 0 157 0 159 -26 183
-24 23 -33 24 -167 26 -103 2 -150 -1 -172 -11z m285 -196 l0 -130 -130 0
-130 0 0 130 0 130 130 0 130 0 0 -130z"/>
<path d="M450 2382 c-51 -16 -77 -84 -47 -123 33 -43 81 -46 125 -6 54 50 -7
151 -78 129z"/>
<path d="M793 2382 c-30 -4 -63 -48 -63 -82 0 -49 69 -92 112 -69 33 18 47 40
48 75 0 47 -48 84 -97 76z"/>
<path d="M412 2017 c-58 -61 16 -165 90 -126 51 27 63 78 27 123 -27 35 -86
36 -117 3z"/>
<path d="M751 2014 c-27 -34 -27 -74 -1 -102 53 -56 139 -23 140 54 0 69 -96
102 -139 48z"/>
<path d="M4348 1856 c-30 -22 -38 -64 -38 -197 0 -203 11 -213 237 -207 123 3
133 5 157 27 26 24 26 26 26 181 0 144 -2 160 -21 184 l-20 26 -162 0 c-117
-1 -167 -4 -179 -14z m302 -196 l0 -130 -130 0 -130 0 0 130 0 130 130 0 130
0 0 -130z"/>
<path d="M415 1675 c-49 -48 -15 -135 53 -135 39 0 82 43 82 82 0 39 -40 78
-80 78 -19 0 -40 -9 -55 -25z"/>
<path d="M755 1675 c-15 -14 -25 -36 -25 -53 0 -39 43 -82 82 -82 39 0 78 40
78 80 0 19 -9 40 -25 55 -15 16 -36 25 -55 25 -19 0 -40 -9 -55 -25z"/>
<path d="M415 1335 c-50 -49 -15 -135 55 -135 41 0 80 39 80 80 0 41 -39 80
-80 80 -19 0 -40 -9 -55 -25z"/>
<path d="M755 1335 c-16 -15 -25 -36 -25 -55 0 -19 9 -40 25 -55 15 -16 36
-25 55 -25 19 0 40 9 55 25 16 15 25 36 25 55 0 19 -9 40 -25 55 -15 16 -36
25 -55 25 -19 0 -40 -9 -55 -25z"/>
<path d="M4339 1164 c-23 -25 -24 -30 -24 -185 0 -211 -7 -203 186 -207 159
-4 180 -1 209 30 18 20 20 35 20 180 0 155 -1 159 -25 183 -24 24 -28 25 -183
25 -157 0 -159 0 -183 -26z m311 -184 l0 -130 -130 0 -130 0 0 130 0 130 130
0 130 0 0 -130z"/>
<path d="M415 995 c-16 -15 -25 -36 -25 -55 0 -19 9 -40 25 -55 48 -49 135
-15 135 53 0 39 -43 82 -82 82 -17 0 -39 -10 -53 -25z"/>
<path d="M756 994 c-16 -17 -26 -38 -26 -56 0 -39 40 -78 80 -78 19 0 40 9 55
25 49 48 15 135 -53 135 -18 0 -39 -10 -56 -26z"/>
<path d="M435 668 c-77 -44 -50 -148 37 -148 84 0 106 108 31 148 -27 15 -42
15 -68 0z"/>
<path d="M775 668 c-49 -28 -59 -78 -24 -122 43 -55 139 -21 139 50 -1 33 -15
55 -47 72 -27 15 -42 15 -68 0z"/>
</g>
</svg>
