<?xml version="1.0" standalone="no"?>
<!DOCTYPE svg PUBLIC "-//W3C//DTD SVG 20010904//EN"
 "http://www.w3.org/TR/2001/REC-SVG-20010904/DTD/svg10.dtd">
<svg version="1.0" xmlns="http://www.w3.org/2000/svg"
 width="512.000000pt" height="512.000000pt" viewBox="0 0 512.000000 512.000000"
 preserveAspectRatio="xMidYMid meet">
<metadata>
Created by potrace 1.16, written by Peter Selinger 2001-2019
</metadata>
<g transform="translate(0.000000,512.000000) scale(0.100000,-0.100000)"
fill="currentColor" stroke="none">
<path d="M3630 5092 c0 -27 -2 -28 -77 -39 -208 -31 -428 -125 -608 -261 -91
-68 -953 -930 -977 -977 -53 -100 7 -227 132 -284 113 -51 113 -52 630 463
442 439 500 491 616 542 130 57 195 69 389 69 156 0 190 -3 257 -22 204 -59
365 -173 472 -333 58 -86 78 -129 112 -230 27 -81 28 -93 28 -280 0 -184 -1
-200 -27 -283 -61 -197 -81 -222 -583 -727 -515 -517 -514 -517 -463 -630 57
-125 184 -185 284 -132 47 24 909 886 977 977 134 179 227 392 261 603 11 69
13 72 39 72 l28 0 0 115 0 115 -30 0 c-26 0 -30 4 -30 28 0 15 -9 65 -20 112
-66 275 -179 480 -375 675 -161 160 -332 268 -533 335 -92 30 -224 60 -267 60
-21 0 -25 5 -25 30 l0 30 -105 0 -105 0 0 -28z"/>
<path d="M3270 3544 c-47 -21 -167 -137 -848 -817 -436 -436 -806 -812 -823
-837 -47 -71 -55 -111 -34 -166 24 -63 79 -122 140 -150 63 -30 77 -30 145 2
47 21 167 137 848 817 436 436 806 812 823 837 47 71 55 111 34 166 -24 63
-79 122 -140 150 -63 30 -77 30 -145 -2z"/>
<path d="M1350 3171 c-14 -4 -39 -15 -55 -24 -17 -8 -237 -224 -490 -479 -492
-494 -524 -531 -618 -723 -62 -126 -127 -339 -127 -417 0 -24 -4 -28 -30 -28
l-30 0 0 -115 0 -115 30 0 c26 0 30 -4 30 -27 0 -16 9 -66 20 -113 66 -277
178 -479 375 -675 161 -160 332 -268 533 -335 92 -30 224 -60 267 -60 21 0 25
-5 25 -30 l0 -30 105 0 105 0 0 28 c0 27 2 28 78 39 207 31 427 125 607 261
91 68 953 930 977 977 53 100 -7 227 -132 284 -113 51 -113 52 -630 -463 -303
-301 -466 -456 -510 -484 -139 -90 -298 -132 -495 -132 -261 0 -462 76 -628
238 -97 96 -165 208 -213 352 -27 81 -28 93 -28 280 0 184 1 200 27 283 61
197 81 222 583 727 515 517 514 517 463 630 -46 102 -161 175 -239 151z"/>
</g>
</svg>
