<?xml version="1.0" standalone="no"?>
<!DOCTYPE svg PUBLIC "-//W3C//DTD SVG 20010904//EN"
 "http://www.w3.org/TR/2001/REC-SVG-20010904/DTD/svg10.dtd">
<svg version="1.0" xmlns="http://www.w3.org/2000/svg"
 width="512.000000pt" height="512.000000pt" viewBox="0 0 512.000000 512.000000"
 preserveAspectRatio="xMidYMid meet">

<g transform="translate(0.000000,512.000000) scale(0.100000,-0.100000)"
fill="currentColor" stroke="none">
<path d="M19 5089 c-15 -15 -20 -29 -16 -48 3 -14 114 -248 246 -520 l241
-495 0 -1997 c0 -1803 2 -1999 16 -2013 14 -14 214 -16 2054 -16 1840 0 2040
2 2054 16 14 14 16 210 16 2013 l0 1997 241 495 c132 272 243 506 246 520 10
51 -58 89 -99 57 -9 -7 -122 -231 -251 -498 l-235 -485 -1972 0 -1972 0 -235
485 c-129 267 -242 491 -251 498 -24 18 -59 15 -83 -9z m2063 -1450 c3 -324 4
-341 22 -355 16 -12 94 -14 447 -14 l428 0 15 22 c14 19 16 70 16 355 l0 333
745 0 745 0 0 -1930 0 -1930 -1940 0 -1940 0 0 1930 0 1930 730 0 729 0 3
-341z m798 51 l0 -290 -335 0 -335 0 0 290 0 290 335 0 335 0 0 -290z"/>
<path d="M2395 2984 c-11 -3 -56 -12 -100 -20 -467 -90 -861 -467 -988 -944
-56 -210 -50 -488 14 -696 126 -407 446 -731 849 -858 247 -78 533 -78 780 0
403 127 723 451 849 858 64 208 70 486 14 696 -126 475 -502 837 -983 945 -73
17 -388 30 -435 19z m105 -690 l0 -566 -332 -340 c-183 -187 -362 -371 -397
-409 -73 -80 -65 -81 -144 25 -131 174 -205 365 -226 584 -60 598 357 1148
954 1257 39 7 87 14 108 14 l37 1 0 -566z m359 530 c246 -64 480 -223 633
-428 118 -158 208 -386 225 -568 l6 -68 -549 2 -549 3 -3 549 -2 549 72 -8
c40 -3 115 -18 167 -31z m857 -1265 c-37 -376 -295 -737 -650 -909 -305 -148
-661 -155 -972 -19 -99 43 -289 167 -289 187 0 7 175 192 388 412 l389 400
570 0 571 0 -7 -71z"/>
</g>
</svg>
