<?xml version="1.0" standalone="no"?>
<!DOCTYPE svg PUBLIC "-//W3C//DTD SVG 20010904//EN"
 "http://www.w3.org/TR/2001/REC-SVG-20010904/DTD/svg10.dtd">
<svg version="1.0" xmlns="http://www.w3.org/2000/svg"
 width="512.000000pt" height="512.000000pt" viewBox="0 0 512.000000 512.000000"
 preserveAspectRatio="xMidYMid meet">
<metadata>
Created by potrace 1.16, written by Peter Selinger 2001-2019
</metadata>
<g transform="translate(0.000000,512.000000) scale(0.100000,-0.100000)"
fill="currentColor" stroke="none">
<path d="M1850 5092 c0 -28 -1 -28 -92 -41 -541 -72 -1065 -401 -1370 -861
-165 -248 -283 -555 -319 -827 -13 -92 -13 -93 -41 -93 l-28 0 0 -150 0 -150
28 0 c28 0 29 -1 40 -90 57 -427 263 -836 577 -1144 332 -326 767 -526 1232
-565 364 -32 788 79 1139 295 60 37 79 44 123 44 47 0 52 -2 61 -27 6 -16 18
-46 27 -68 12 -29 181 -205 637 -663 568 -569 627 -626 690 -657 38 -19 75
-35 82 -35 9 0 14 -11 14 -30 0 -29 2 -30 45 -30 43 0 45 1 45 29 0 25 5 30
33 36 110 24 259 172 282 282 6 28 11 33 36 33 27 0 29 2 29 40 0 38 -2 40
-30 40 -22 0 -30 5 -30 18 0 9 -14 46 -31 82 -28 59 -83 117 -642 678 -611
612 -666 662 -746 678 -30 6 -31 8 -31 62 0 44 6 64 32 106 226 361 339 789
307 1159 -60 699 -479 1316 -1104 1622 -198 97 -402 160 -605 187 -89 11 -90
12 -90 40 l0 28 -150 0 -150 0 0 -28z m318 -442 c367 -33 675 -175 932 -429
232 -231 375 -513 426 -846 18 -116 18 -404 0 -520 -101 -658 -603 -1160
-1261 -1261 -117 -18 -404 -18 -520 0 -337 53 -612 192 -845 425 -353 353
-500 845 -415 1386 48 305 187 578 408 804 328 335 766 486 1275 441z"/>
</g>
</svg>
