<?xml version="1.0" standalone="no"?>
<!DOCTYPE svg PUBLIC "-//W3C//DTD SVG 20010904//EN"
 "http://www.w3.org/TR/2001/REC-SVG-20010904/DTD/svg10.dtd">
<svg version="1.0" xmlns="http://www.w3.org/2000/svg"
 width="512.000000pt" height="512.000000pt" viewBox="0 0 512.000000 512.000000"
 preserveAspectRatio="xMidYMid meet">

<g transform="translate(0.000000,512.000000) scale(0.100000,-0.100000)"
fill="currentColor" stroke="none">
<path d="M2865 5108 c-45 -24 -45 -19 -45 -485 l0 -443 -762 0 c-481 0 -787
-4 -828 -11 -331 -53 -598 -297 -692 -634 l-23 -80 -3 -1002 -3 -1003 -225 0
-226 0 -29 -29 c-17 -18 -29 -40 -29 -56 0 -16 12 -38 29 -56 l29 -29 1251 0
1251 0 0 -611 0 -611 29 -29 29 -29 277 0 c281 0 304 3 332 39 9 12 12 163 13
628 l0 613 848 2 c804 3 849 4 882 22 49 26 98 74 123 121 l22 40 0 1035 0
1035 -23 80 c-72 252 -258 444 -517 532 l-80 28 -752 3 -753 3 0 129 0 130
398 0 c296 1 401 4 413 13 36 28 39 51 39 332 l0 277 -29 29 -29 29 -449 0
c-305 -1 -454 -4 -468 -12z m805 -328 l0 -170 -340 0 -340 0 0 170 0 170 340
0 340 0 0 -170z m-2091 -806 c167 -55 315 -184 392 -338 78 -159 73 -75 76
-1188 l4 -998 -686 0 -686 0 3 997 3 998 24 70 c83 250 270 425 515 481 97 22
252 12 355 -22z m1241 -99 l0 -135 -38 -19 c-46 -24 -96 -78 -117 -128 -21
-49 -19 -149 4 -198 60 -132 224 -188 350 -120 88 48 134 124 134 225 1 95
-41 166 -129 221 l-34 21 0 134 0 135 743 -3 742 -3 67 -26 c207 -80 351 -244
393 -444 12 -59 15 -227 15 -1048 l0 -979 -29 -29 -29 -29 -1336 0 -1336 0 0
954 c0 608 -4 983 -10 1033 -27 197 -118 374 -264 511 l-67 62 471 0 470 0 0
-135z m137 -317 c29 -33 34 -53 21 -89 -12 -34 -64 -63 -95 -52 -37 13 -63 46
-63 80 0 72 91 112 137 61z m113 -2833 l0 -555 -170 0 -170 0 0 555 0 555 170
0 170 0 0 -555z"/>
</g>
</svg>
