<?xml version="1.0" standalone="no"?>
<!DOCTYPE svg PUBLIC "-//W3C//DTD SVG 20010904//EN"
 "http://www.w3.org/TR/2001/REC-SVG-20010904/DTD/svg10.dtd">
<svg version="1.0" xmlns="http://www.w3.org/2000/svg"
 width="512.000000pt" height="512.000000pt" viewBox="0 0 512.000000 512.000000"
 preserveAspectRatio="xMidYMid meet">
<metadata>
Created by potrace 1.16, written by Peter Selinger 2001-2019
</metadata>
<g transform="translate(0.000000,512.000000) scale(0.100000,-0.100000)"
fill="currentColor" stroke="none">
<path d="M2395 4904 c-218 -33 -399 -89 -580 -179 -177 -89 -296 -176 -450
-330 -154 -154 -241 -273 -330 -450 -114 -230 -172 -443 -181 -675 -5 -115 -3
-151 16 -240 89 -432 373 -1000 875 -1750 322 -482 719 -1016 782 -1053 32
-18 34 -18 65 0 60 35 507 635 797 1071 485 728 774 1309 861 1732 54 258 -9
602 -165 915 -240 479 -687 822 -1220 935 -97 21 -392 36 -470 24z m370 -880
c222 -57 402 -237 459 -460 22 -84 22 -327 1 -409 -51 -193 -202 -364 -387
-435 -152 -59 -380 -61 -539 -6 -177 61 -324 211 -391 396 -21 59 -23 82 -23
245 0 164 2 187 24 254 76 230 291 403 536 431 91 11 244 3 320 -16z"/>
</g>
</svg>
