<?xml version="1.0" standalone="no"?>
<!DOCTYPE svg PUBLIC "-//W3C//DTD SVG 20010904//EN"
 "http://www.w3.org/TR/2001/REC-SVG-20010904/DTD/svg10.dtd">
<svg version="1.0" xmlns="http://www.w3.org/2000/svg"
 width="512.000000pt" height="512.000000pt" viewBox="0 0 512.000000 512.000000"
 preserveAspectRatio="xMidYMid meet">
<metadata>
Created by potrace 1.16, written by Peter Selinger 2001-2019
</metadata>
<g transform="translate(0.000000,512.000000) scale(0.100000,-0.100000)"
fill="currentColor" stroke="none">
<path d="M1050 5090 c0 -21 -5 -30 -16 -30 -9 0 -46 -14 -83 -32 -131 -63
-229 -197 -251 -344 -5 -38 -10 -149 -10 -246 l0 -178 -130 0 -130 0 -40 -36
c-50 -45 -51 -72 -6 -122 l34 -37 136 -3 136 -4 0 -299 0 -299 -130 0 -130 0
-40 -36 c-50 -45 -51 -72 -6 -122 l34 -37 136 -3 136 -4 0 -299 0 -299 -130 0
-130 0 -40 -36 c-50 -45 -51 -72 -6 -122 l34 -37 136 -3 136 -4 0 -299 0 -299
-130 0 -130 0 -40 -36 c-52 -47 -53 -78 -4 -125 l35 -34 135 -3 134 -4 0 -299
0 -299 -130 0 -130 0 -40 -36 c-50 -45 -51 -72 -6 -122 l34 -37 136 -3 136 -4
0 -176 c0 -214 11 -296 50 -376 53 -112 159 -206 264 -236 41 -11 46 -16 46
-41 l0 -29 1515 0 1515 0 0 30 c0 18 5 30 13 30 15 0 59 45 76 77 8 15 11 245
11 802 l0 781 255 0 256 0 42 39 42 40 3 1353 c2 1304 2 1354 -16 1388 -11 20
-37 44 -62 57 -41 22 -53 23 -281 23 l-238 0 -3 184 -3 185 -34 35 c-19 20
-41 36 -48 36 -8 0 -13 12 -13 30 l0 30 -1515 0 -1515 0 0 -30z m2920 -2530
l0 -2310 -1477 2 c-1458 3 -1478 3 -1511 23 -18 11 -43 36 -55 55 -21 33 -22
48 -25 283 l-3 247 129 0 c118 0 132 2 163 23 18 12 40 35 49 50 13 24 13 30
0 54 -9 15 -31 38 -49 50 -31 21 -45 23 -162 23 l-129 0 0 300 0 300 129 0
c117 0 131 2 162 23 18 12 40 35 49 50 13 24 13 30 0 54 -9 15 -31 38 -49 50
-31 21 -45 23 -162 23 l-129 0 0 300 0 300 129 0 c117 0 131 2 162 23 18 12
40 35 49 50 13 24 13 30 0 54 -9 15 -31 38 -49 50 -31 21 -45 23 -162 23
l-129 0 0 300 0 300 129 0 c117 0 131 2 162 23 18 12 40 35 49 50 13 24 13 30
0 54 -9 15 -31 38 -49 50 -31 21 -45 23 -162 23 l-129 0 0 300 0 300 129 0
c117 0 131 2 162 23 18 12 40 35 49 50 13 24 13 30 0 54 -9 15 -31 38 -49 50
-31 21 -45 23 -163 23 l-129 0 3 248 c3 234 4 249 25 282 24 39 53 60 98 71
17 4 686 7 1488 8 l1457 1 0 -2310z m600 1505 l0 -345 -195 0 -195 0 0 345 0
345 195 0 195 0 0 -345z m0 -900 l0 -345 -195 0 -195 0 0 345 0 345 195 0 195
0 0 -345z m0 -900 l0 -345 -195 0 -195 0 0 345 0 345 195 0 195 0 0 -345z"/>
<path d="M1722 4170 c-20 -13 -41 -38 -53 -65 -19 -43 -20 -66 -17 -632 l3
-588 23 -33 c51 -71 -9 -67 942 -67 812 0 857 1 885 18 17 10 39 31 50 45 19
26 20 45 23 632 2 590 2 606 -18 638 -11 18 -34 41 -52 52 -32 19 -52 20 -893
20 -846 0 -861 0 -893 -20z m1648 -685 l0 -495 -755 0 -755 0 0 495 0 495 755
0 755 0 0 -495z"/>
<path d="M1873 2300 c-18 -10 -39 -33 -48 -50 -14 -27 -14 -33 0 -60 9 -17 30
-40 48 -51 31 -19 52 -19 755 -17 l724 3 34 37 c45 50 44 77 -6 122 l-40 36
-718 0 c-693 0 -718 -1 -749 -20z"/>
<path d="M1873 1700 c-18 -10 -39 -33 -48 -50 -14 -27 -14 -33 0 -60 9 -17 30
-40 48 -51 31 -19 52 -19 755 -17 l724 3 34 37 c45 50 44 77 -6 122 l-40 36
-718 0 c-693 0 -718 -1 -749 -20z"/>
</g>
</svg>
