<?xml version="1.0" standalone="no"?>
<!DOCTYPE svg PUBLIC "-//W3C//DTD SVG 20010904//EN"
 "http://www.w3.org/TR/2001/REC-SVG-20010904/DTD/svg10.dtd">
<svg version="1.0" xmlns="http://www.w3.org/2000/svg"
 width="512.000000pt" height="512.000000pt" viewBox="0 0 512.000000 512.000000"
 preserveAspectRatio="xMidYMid meet">

<g transform="translate(0.000000,512.000000) scale(0.100000,-0.100000)"
fill="currentColor" stroke="none">
<path d="M2050 5109 c-332 -38 -668 -179 -925 -389 -106 -86 -328 -322 -314
-334 3 -2 1427 -1228 1562 -1344 16 -14 17 36 17 1031 l0 1047 -132 -1 c-73
-1 -167 -5 -208 -10z m40 -860 c0 -308 -4 -559 -8 -557 -15 6 -842 722 -842
729 0 11 131 113 206 162 140 90 280 151 444 192 107 27 133 32 173 34 l27 1
0 -561z"/>
<path d="M2850 3216 l0 -1038 -615 -833 c-338 -458 -615 -836 -615 -839 0 -20
304 -222 429 -286 82 -41 257 -108 367 -139 522 -147 1107 -85 1574 167 633
342 1050 968 1120 1681 84 859 -384 1702 -1160 2091 -295 148 -567 215 -917
227 l-183 6 0 -1037z m516 694 c228 -47 494 -163 684 -298 124 -87 347 -310
433 -432 91 -129 196 -339 246 -493 169 -520 93 -1096 -205 -1555 -134 -207
-328 -401 -536 -536 -109 -71 -304 -165 -426 -205 -388 -128 -849 -117 -1221
31 -89 35 -270 124 -288 141 -10 10 104 170 542 765 l555 752 0 931 0 932 63
-7 c34 -4 103 -16 153 -26z"/>
<path d="M553 3863 c-289 -329 -464 -698 -530 -1118 -27 -169 -24 -490 6 -658
81 -461 274 -832 600 -1158 121 -120 335 -293 355 -286 6 2 310 410 678 908
505 685 664 906 654 914 -18 14 -484 416 -581 500 -44 39 -195 169 -335 290
-140 121 -302 260 -360 310 -243 210 -396 341 -411 353 -14 11 -25 3 -76 -55z
m732 -906 c346 -298 629 -546 630 -549 0 -4 -222 -309 -494 -678 l-494 -670
-51 44 c-67 57 -199 214 -270 320 -63 95 -150 265 -189 371 -177 473 -149
1002 75 1448 53 107 145 257 157 257 4 0 290 -244 636 -543z"/>
</g>
</svg>
