<?xml version="1.0" standalone="no"?>
<!DOCTYPE svg PUBLIC "-//W3C//DTD SVG 20010904//EN"
 "http://www.w3.org/TR/2001/REC-SVG-20010904/DTD/svg10.dtd">
<svg version="1.0" xmlns="http://www.w3.org/2000/svg"
 width="512.000000pt" height="512.000000pt" viewBox="0 0 512.000000 512.000000"
 preserveAspectRatio="xMidYMid meet">

<g transform="translate(0.000000,512.000000) scale(0.100000,-0.100000)"
fill="currentColor" stroke="none">
<path d="M2505 5096 c-13 -13 -27 -39 -30 -57 -3 -19 -5 -150 -3 -292 l3 -259
28 -24 c16 -13 41 -24 57 -24 16 0 41 11 57 24 l28 24 3 259 c2 142 0 273 -3
292 -9 45 -46 81 -85 81 -19 0 -40 -9 -55 -24z"/>
<path d="M1139 4921 c-17 -17 -29 -40 -29 -55 0 -30 251 -539 283 -573 42 -46
122 -21 141 43 9 28 -262 574 -296 598 -34 24 -66 19 -99 -13z"/>
<path d="M3882 4934 c-34 -24 -305 -570 -296 -598 12 -40 45 -66 84 -66 25 0
43 7 57 23 32 34 283 543 283 573 0 32 -50 84 -82 84 -13 0 -34 -7 -46 -16z"/>
<path d="M2526 4263 c-11 -3 -564 -180 -1229 -394 -1297 -416 -1250 -399
-1283 -476 -12 -27 -14 -231 -14 -1205 0 -777 4 -1186 10 -1210 15 -52 68
-119 115 -145 22 -12 564 -203 1205 -425 1067 -368 1170 -402 1230 -402 60 -1
159 32 1227 401 639 221 1179 411 1201 422 22 11 54 37 71 58 64 78 61 9 61
1300 0 1280 3 1209 -58 1266 -31 30 9 16 -1492 498 -206 66 -505 163 -665 214
-293 94 -344 107 -379 98z m-27 -1417 c18 -19 35 -26 61 -26 26 0 43 7 61 26
l24 26 5 597 5 597 1137 -366 c625 -201 1139 -367 1142 -370 8 -9 -2380 -774
-2391 -767 -6 4 -255 85 -554 181 -1532 493 -1813 585 -1799 590 8 3 521 168
1140 367 619 198 1127 363 1130 366 3 2 7 -265 10 -595 l5 -600 24 -26z
m-1244 -46 c534 -171 1025 -329 1093 -351 l122 -41 0 -1104 c0 -607 -2 -1104
-4 -1104 -1 0 -435 149 -962 330 -527 182 -1033 356 -1124 388 -99 34 -174 65
-187 79 l-23 22 0 1065 0 1065 58 -19 c31 -11 494 -159 1027 -330z m3690
-1777 c-3 -13 -15 -29 -28 -37 -18 -12 -2247 -786 -2263 -786 -2 0 -4 497 -4
1104 l0 1105 108 35 c59 19 474 152 922 296 448 144 916 294 1040 334 l225 72
3 -1050 c1 -578 0 -1061 -3 -1073z"/>
<path d="M445 2836 c-41 -19 -83 -66 -95 -107 -6 -21 -10 -322 -10 -779 l0
-746 23 -44 c12 -24 33 -52 47 -62 23 -17 1633 -578 1701 -593 37 -8 101 12
133 42 59 55 57 10 54 880 l-3 798 -23 33 c-13 18 -37 39 -54 48 -28 14 -352
120 -1321 430 -196 63 -372 114 -390 114 -17 -1 -45 -7 -62 -14z m888 -420
c433 -139 790 -255 792 -258 3 -3 4 -93 3 -200 l-3 -195 -665 214 c-366 117
-729 233 -807 258 l-143 46 0 200 c0 186 1 200 18 195 9 -4 371 -120 805 -260z
m-8 -575 l800 -257 3 -202 2 -202 -26 10 c-14 6 -258 85 -542 176 -285 91
-637 204 -784 252 l-268 86 0 198 c0 109 3 198 8 197 4 0 367 -116 807 -258z
m9 -581 l796 -255 0 -162 c0 -90 -3 -163 -6 -163 -5 0 -262 88 -1436 493
l-178 61 0 144 c0 120 2 143 14 140 8 -2 373 -118 810 -258z"/>
<path d="M4565 2845 c-5 -2 -376 -121 -822 -264 -447 -143 -826 -267 -842
-275 -16 -9 -40 -30 -53 -48 l-23 -33 -3 -798 c-3 -871 -5 -825 55 -881 15
-14 47 -30 73 -36 53 -13 38 -17 485 137 143 50 480 166 749 259 269 92 503
177 520 189 17 11 41 40 54 65 l22 44 0 746 c0 458 -4 759 -10 780 -11 41 -61
94 -103 109 -27 11 -81 13 -102 6z m43 -462 l-3 -297 -220 -71 c-241 -78 -267
-90 -306 -132 -40 -43 -59 -86 -68 -161 -15 -120 -61 -172 -156 -180 -68 -6
-111 15 -166 80 -49 58 -124 98 -185 98 -34 0 -179 -43 -496 -146 -17 -5 -18
13 -18 290 l0 295 253 82 c138 44 500 161 802 259 303 98 553 178 558 179 4 1
6 -133 5 -296z m2 -816 l0 -334 -803 -276 c-442 -152 -806 -277 -810 -277 -4
0 -7 159 -7 354 l0 354 93 31 c252 82 410 131 423 131 8 0 45 -31 82 -68 82
-84 146 -112 252 -112 97 0 171 29 235 94 63 63 94 129 104 218 4 40 14 75 23
84 15 15 356 131 391 133 16 1 17 -21 17 -332z"/>
</g>
</svg>
