<svg version="1.0" xmlns="http://www.w3.org/2000/svg" width="682.667" height="682.667" viewBox="0 0 512 512">
  <path d="M241 24v24h30V0h-30v24zM128 34.3c-6.9 4-12.4 7.6-12.4 8 .1.5 5.5 10 11.9 21.1l11.7 20.4 12.2-7c6.6-3.8 12.4-7.3 12.8-7.7.7-.6-20.7-39-22.9-41.2-.4-.4-6.4 2.4-13.3 6.4zm241.7-5.1c-7.8 12.3-22.6 39.3-22 39.9.5.4 6.3 3.9 12.9 7.7l12.2 7 11.7-20.4c6.4-11.1 11.7-20.7 11.8-21.1 0-.7-5.5-4.2-19.5-12.2l-5.7-3.2-1.4 2.3zM40.6 117.3c-5.5 8.5-13.4 23.3-12.7 24 2.2 2.2 40.6 23.6 41.2 23 .4-.5 3.9-6.3 7.7-12.9l6.9-12.1-2.6-1.6c-1.4-.8-10.8-6.2-20.9-12-18.1-10.5-18.2-10.6-19.6-8.4zm408.3 10-20.7 11.9 7 12.2c3.8 6.6 7.3 12.4 7.7 12.8.6.7 39-20.7 41.2-22.9.7-.7-11.4-23.1-13.7-25.2-.5-.5-9.4 4.1-21.5 11.2zm-336.6 50.9-18.1 30.3 43.1.3c23.6.1 43.2.1 43.4-.1.2-.3 12.3-59.3 12.3-60.4 0-.2-14.1-.3-31.3-.3h-31.2l-18.2 30.2zm111.2-29c-.6 2-11.5 57.2-11.5 58.5 0 1 9.5 1.3 44 1.3 41.3 0 44-.1 44-1.8-.1-.9-2.7-14.5-5.8-30.2l-5.8-28.5-32.2-.3c-25.3-.2-32.3 0-32.7 1zm95.5-.9c0 1.1 12.1 60.1 12.3 60.4.2.2 19.8.2 43.4.1l43.1-.3-18.1-30.3-18.2-30.2h-31.2c-17.2 0-31.3.1-31.3.3zm-218.8 92.4c.9 1 27.8 34 59.8 73.3 32 39.3 59.2 72.6 60.5 73.8 1.8 2-1.2-10-18.1-72.5-11.2-41.1-20.4-75.1-20.4-75.6 0-.4-18.7-.7-41.7-.7-39.5 0-41.5.1-40.1 1.7zm113.2.5C221.3 271.6 255.6 396 256 396c.4 0 34.7-124.4 42.6-154.8l.6-2.2h-86.4l.6 2.2zm116.6-1.5c0 .5-9.2 34.5-20.4 75.6-16.9 62.5-19.9 74.5-18.1 72.5 1.3-1.2 28.5-34.5 60.5-73.8s58.9-72.3 59.8-73.3c1.4-1.6-.6-1.7-40.1-1.7-23 0-41.7.3-41.7.7zM0 256v15h48v-30H0v15zm464 0v15h48v-30h-48v15zM48.1 358.6c-10.7 6.2-19.8 11.7-20.2 12.1-.9.9 13.1 25.8 14.4 25.6.4-.1 10-5.4 21.1-11.8l20.4-11.7-7.3-12.6c-3.9-6.9-7.6-12.7-8.1-12.8-.5-.1-9.6 4.9-20.3 11.2zm390.8-4.4c-2.3 4-5.7 9.8-7.4 12.9l-3.3 5.7 20.6 11.8c11.3 6.6 20.8 11.9 21.1 11.9.3 0 3.8-5.7 7.8-12.5 5.5-9.6 6.9-12.8 6-13.6-1-1-32.5-19.2-38.4-22.3-2.1-1-2.5-.6-6.4 6.1zm-311.3 94.2c-6.4 11-11.7 20.5-11.8 21.1-.4 1.4 24.5 15.6 25.5 14.6 2.2-2.2 23.6-40.6 22.9-41.2-.4-.4-6.2-3.9-12.8-7.7l-12.2-7-11.6 20.2zm232.7-13c-6.7 3.9-12.5 7.4-12.8 7.7-.5.5 21.4 39.2 23.2 41 .7.7 15.5-7.2 24-12.7 2.2-1.4 2.1-1.5-8.9-20.6-6.1-10.6-11.6-20-12.2-20.9-1-1.3-2.7-.6-13.3 5.5zM241 488v24h30v-48h-30v24z" fill="currentColor"/>
</svg>
