<svg version="1.0" xmlns="http://www.w3.org/2000/svg" width="682.667" height="682.667" viewBox="0 0 512 512"><g fill="currentColor"><path d="M286 30v30h30V0h-30v30zM184 48.5 173.5 59l21.3 21.3 21.2 21.2 10.7-10.8L237.5 80l-21-21C205 47.5 195.3 38 195 38c-.3 0-5.2 4.7-11 10.5zM385.5 59l-21 21 10.8 10.7 10.7 10.8 21.2-21.2L428.5 59 418 48.5c-5.8-5.8-10.7-10.5-11-10.5-.3 0-10 9.5-21.5 21zM34.5 93.4C16 98.1 3 112.7.4 131.8l-.7 5.2h15.2c12.9 0 15.1-.2 15.1-1.5 0-3.4 3.9-9.1 7.8-11.3 3.7-2.1 5.2-2.2 22.6-2.2 21.1 0 25 1 28.2 7.3 1 1.7 14.6 55.6 30.4 119.6l28.7 116.5-5.6 3.6c-24.6 15.9-28.2 49-7.6 69.5 10 10 19.8 13.5 38.2 13.5h10.5l-.6 3.2c-3.7 17.3.3 31.8 11.9 43.3 21.2 21.3 57 16.2 70.8-10.2 5.5-10.6 6.8-20.5 4.1-33.1l-.6-3.2h94.5l-.7 3.2c-3.7 17.3.3 31.8 11.9 43.3 25.8 25.9 69.5 11.8 75.7-24.4 4-23.2-11.7-46.1-35-51-3.7-.8-41.9-1.1-128.9-1.1H162.8l-4-2.2c-4.5-2.5-7.8-8-7.8-12.8 0-4.4 3.3-10.2 7.2-12.5 3.2-2 5.5-2 144.3-2.5l140.9-.5L477.7 272c18.8-65.7 34.3-119.6 34.3-119.8 0-.1-86.8-.2-193-.2H126.1l-1-3.8c-.6-2-2.2-8.7-3.7-14.7-1.5-6.2-4.2-13.9-6.1-17.8-6.1-11.5-17.8-20.3-30.4-22.7-7.5-1.4-44.3-1.1-50.4.4zm437.2 90.3c-.2 1-11.8 41.5-25.7 90.1L420.7 362l-121.5-.2-121.6-.3-21.8-88.5c-12-48.7-21.8-89.1-21.8-89.8 0-.9 34.5-1.2 169.1-1.2 160.6 0 169.1.1 168.6 1.7zM233 454c4.5 2.3 8 8 8 13 0 7.6-7.4 15-15.1 15-7.3 0-14.9-7.6-14.9-15 0-4.8 3.5-10.7 7.8-12.9 4.8-2.6 9.3-2.6 14.2-.1zm180 0c4.5 2.3 8 8 8 13 0 7.6-7.4 15-15.1 15-7.3 0-14.9-7.6-14.9-15 0-4.8 3.5-10.7 7.8-12.9 4.8-2.6 9.3-2.6 14.2-.1z"/></g></svg>