<svg version="1.0" xmlns="http://www.w3.org/2000/svg" width="682.667" height="682.667" viewBox="0 0 512 512"><g fill="currentColor"><path d="M0 150.5V301h512V0H0v150.5zm164.3-90.2L175 49.5l10.7 10.8L196.5 71l-10.8 10.8L175 92.5l10.5 10.5 10.5 10.5-10.5 10.5-10.5 10.5-10.5-10.5-10.5-10.5-10.7 10.8-10.8 10.7-10.7-10.7-10.8-10.8 10.7-10.7L132.5 92 122 81.5 111.5 71 122 60.5 132.5 50 143 60.5 153.5 71l10.8-10.7zm188.7.2L363.5 71 374 60.5 384.5 50 395 60.5 405.5 71 395 81.5 384.5 92l10.8 10.7 10.7 10.8-10.7 10.7-10.8 10.8-10.7-10.7-10.8-10.8-10.5 10.5-10.5 10.5-10.5-10.5-10.5-10.5 10.5-10.5L342 92.5l-10.7-10.7L320.5 71 331 60.5c5.8-5.8 10.7-10.5 11-10.5.3 0 5.2 4.7 11 10.5zm-73 101.6c27.2 3.3 52.8 11.8 75.7 24.9 4.5 2.7 18.6 11.9 31.3 20.6l23 15.7-1.8 2.7c-7.5 11.8-14.9 21.9-15.7 21.6-.5-.2-11.5-7.6-24.4-16.5-25.5-17.6-40.7-25.8-58.1-31.5-34.7-11.4-73-11.4-107.7-.1-20.2 6.7-29.5 11.7-60.7 33.3-11.5 7.9-21.4 14.5-22 14.7-1 .4-16.1-20.6-16.8-23.3-.5-1.9 48.5-34.7 62.1-41.6 22.4-11.3 43.7-17.8 69.6-20.9 6.9-.9 37.7-.6 45.5.4zM0 336.2c.1 23.9 17.6 46.4 41.6 53.5 5.4 1.6 13.5 1.8 87.7 2.1l81.7.3V422h90v-29.9l81.8-.3c90.4-.4 86.4-.1 99.6-7 8.5-4.5 19.2-15.5 23.4-24.1 3.8-7.9 6.2-17.2 6.2-24.5V331H0v5.2zM169 453.6c-14.1 3.8-26 15.2-31 29.9-1.5 4.5-2 8.4-2 17.2V512h240v-10.9c0-7.9-.5-12.6-1.9-17-4.6-14.9-16.8-26.7-31.6-30.5-8.6-2.3-165-2.3-173.5 0z"/></g></svg>