<svg version="1.0" xmlns="http://www.w3.org/2000/svg" width="682.667" height="682.667" viewBox="0 0 512 512">
  <g fill="currentColor">
    <path d="M434.8 32.2c-42.2 17.6-76.5 32.4-76.3 32.9.3.4 8.9 6 19.3 12.4 10.3 6.5 19.3 12.3 19.9 12.9 1 .9-.6 3-7 9.4l-8.2 8.2-5-4.1c-23.5-19.5-56.8-34.5-88.5-40C183.4 45.7 83 116.7 63.8 223c-2.9 16-3.1 45.8-.4 61.5 1 6 2.2 11.3 2.6 11.8.3.4 1.6-.4 2.9-1.7l2.3-2.4 11.6 3.9c6.5 2.2 20.6 6.8 31.4 10.3l19.7 6.4-1.6-3.7c-15.7-36-14.6-78.3 3-113.2 6.8-13.6 13.5-22.7 25.2-34.5 20-20.2 42.2-32.2 70.5-38.1 10.5-2.2 37-2.4 48-.4 17.5 3.1 37.4 11.2 53 21.6 9.6 6.4 29.1 25.9 35.5 35.5 10.2 15.4 17.3 32.5 21.2 51 2.4 11.8 2.4 38.2 0 50-5.9 28.4-17.9 50.6-38.1 70.5-6.1 6.1-14.5 13.3-18.6 16-28.4 18.9-62.1 26.8-94 22.1-10.5-1.6-26-6-35.1-9.9l-3.7-1.6 6.4 19.7c3.5 10.8 8.1 24.9 10.3 31.3l3.9 11.7-2.6 2.5c-3.1 3.1-3.4 3 10.3 5.2 82.2 13.5 166.1-30.7 203.5-107 32.2-65.9 24.9-143.6-19.1-201.8l-7.7-10.2 8.1-8.2c6.3-6.4 8.4-8 9.3-7 .6.6 6.4 9.6 12.9 19.9 6.4 10.4 12 19 12.5 19.3.4.2 15-33.8 32.5-75.8 17.5-41.9 32-76.5 32.2-77 .6-1 7.5-3.8-76.9 31.5z"/>
    <path d="M240.5 152c-21.4 3.3-43 14.4-58.6 29.9-13.5 13.6-23 30.3-28 49.7-2 7.5-2.3 11.3-2.3 24.4.1 13.4.4 16.8 2.6 25.1 1.5 5.3 4.3 13.2 6.3 17.5 3.9 8.6 10.5 19.4 11.8 19.4.8 0 16.8-15.8 19.5-19.2 1.1-1.4.8-2.7-2.2-8.5-4.2-8.5-6.2-14.4-7.6-22.5-3.9-24 4-47.7 21.7-65 11.2-10.9 22.8-17.2 37.5-20.2 24.6-5.1 49.9 2.6 67.7 20.7 13.8 14 20.5 28.9 21.8 48.7 3 47-39.8 85.5-86.5 78-8.1-1.4-13.9-3.3-23-7.8l-7.2-3.6-10 9.9c-5.5 5.5-10 10.4-10 11 0 1.5 10.2 7.8 19.4 12 4.3 2 12.2 4.8 17.5 6.3 8.5 2.2 11.5 2.6 25.6 2.5 13 0 17.4-.4 23.5-2.1 20.4-5.5 37-14.9 50.3-28.3 13.4-13.6 22.4-29.7 28-49.9 2.9-10.9 2.9-37.1 0-48-5.7-20.6-14.8-36.7-28.6-50.4-13.6-13.6-29.7-22.7-48.7-27.5-9.7-2.5-30.7-3.6-40.5-2.1z"/>
    <path d="M245.5 212.4c-12.6 3.2-24.6 12.8-29.8 23.8-5.3 11.2-5.9 25.2-1.5 35.8l1.4 3.4 14.6-14.7c8-8.1 14.9-14.7 15.3-14.7.5 0 5.3 4.5 10.7 10.1 8.6 8.7 9.7 10.3 8.6 11.7-.7.8-7.3 7.7-14.5 15.1L237 296.5l3.3 1.4c6.4 2.7 15.2 3.6 22.8 2.3 36.2-6.2 50.2-49.9 24.4-75.8-11.2-11.3-26.9-15.8-42-12zM39.6 366.5C18.2 388.3.9 406.2 1.1 406.4c.2.2 14.3 4.9 31.2 10.6l30.9 10.2 10.6-10.3c5.9-5.7 23.9-23.7 40-40l29.3-29.5-30.9-10.2c-17-5.6-31.5-10.2-32.3-10.2-.8 0-18.9 17.8-40.3 39.5zm84.4 42L84.5 448l10.4 31.2c5.7 17.2 10.5 31.5 10.7 31.7.7.7 79.4-77.4 79.4-78.9 0-2-20.3-63-21-63-.3 0-18.3 17.8-40 39.5z"/>
  </g>
</svg>
