<svg version="1.0" xmlns="http://www.w3.org/2000/svg" width="682.667" height="682.667" viewBox="0 0 512 512">
  <path d="M25.3 53.4C15.1 56.7 7.7 63.1 3.1 73L.5 78.5v123l3.3 6.7c3.8 7.7 9.2 13 17.1 16.7l5.6 2.6h123l6.7-3.3c7.7-3.8 13-9.2 16.7-17.1l2.6-5.6v-123l-2.6-5.6c-3.7-7.9-9-13.3-16.7-17.1l-6.7-3.3-60-.2c-47.6-.2-60.9.1-64.2 1.1zm208.2 48c-6.7 2.9-10.5 10.6-9.1 18.1.9 4.7 5.9 10.2 10.4 11.5 2.6.8 44.9 1 135.4.8 131.2-.3 131.7-.3 134.4-2.4 5.3-3.9 6.9-7.1 6.9-13.4 0-6.3-1.6-9.5-6.9-13.4-2.7-2.1-3.1-2.1-135.4-2.3-108.8-.2-133.2 0-135.7 1.1zm0 60c-6.7 2.9-10.5 10.6-9.1 18.1.9 4.7 5.9 10.2 10.4 11.5 2.5.8 31.7 1 91.4.8 86.7-.3 87.7-.3 90.4-2.4 5.3-3.9 6.9-7.1 6.9-13.4 0-6.3-1.6-9.5-6.9-13.4-2.7-2.1-3.6-2.1-91.4-2.3-72.2-.2-89.3 0-91.7 1.1zm-208.2 124c-10.2 3.3-17.6 9.7-22.2 19.6l-2.6 5.5v123l3.3 6.7c3.8 7.7 9.2 13 17.1 16.7l5.6 2.6h123l6.7-3.3c7.7-3.8 13-9.2 16.7-17.1l2.6-5.6v-123l-2.6-5.6c-3.7-7.9-9-13.3-16.7-17.1l-6.7-3.3-60-.2c-47.6-.2-60.9.1-64.2 1.1zm208.2 44c-6.7 2.9-10.5 10.6-9.1 18.1.9 4.7 5.9 10.2 10.4 11.5 2.6.8 44.9 1 135.4.8 131.2-.3 131.7-.3 134.4-2.4 5.3-3.9 6.9-7.1 6.9-13.4 0-6.3-1.6-9.5-6.9-13.4-2.7-2.1-3.1-2.1-135.4-2.3-108.8-.2-133.2 0-135.7 1.1zm0 64c-6.7 2.9-10.5 10.6-9.1 18.1.9 4.7 5.9 10.2 10.4 11.5 2.5.8 31.7 1 91.4.8 86.7-.3 87.7-.3 90.4-2.4 5.3-3.9 6.9-7.1 6.9-13.4 0-6.3-1.6-9.5-6.9-13.4-2.7-2.1-3.6-2.1-91.4-2.3-72.2-.2-89.3 0-91.7 1.1z" fill="currentColor"/>
</svg>
