<svg version="1.0" xmlns="http://www.w3.org/2000/svg" width="682.667" height="682.667" viewBox="0 0 512 512" fill="currentColor">
    <path d="M215 16.6c-1.4.2-5.2.9-8.5 1.5-32.8 5.6-64 29.1-79 59.4-8.6 17.5-11.9 31.9-11.8 51.5.1 18.5 3.4 32.5 11.8 49.5 5.4 10.9 11 18.5 21.2 28.8 11.9 12 25.7 20.6 42.3 26.4 13.3 4.7 20.8 5.8 38 5.7 13.2-.1 16.9-.5 25.1-2.7 13.2-3.5 22.9-7.7 33.5-14.5 23.5-15.2 40.9-39 48.1-65.7 2.4-9.2 2.7-11.6 2.7-28.5s-.3-19.3-2.7-28.5C328.5 73 311.4 49.4 288 34c-17.4-11.4-35.5-16.9-57-17.5-7.4-.2-14.6-.2-16 .1zM366 262.1c-11.2 2.2-21.7 10.7-26.8 21.7-2.5 5.4-2.7 6.7-3 23.4l-.4 17.8h-3.3c-10 0-22.9 5.4-29 12.1-4.6 5.1-8.1 12.2-9.5 19.4-.8 4.2-1 20-.8 52.5.3 45.7.4 46.6 2.6 52.2 4.2 10.4 13.7 19.4 23.5 22.3 7.6 2.2 142.8 2.3 150.4 0 11.4-3.4 20.8-12.9 24.4-24.6 1.9-6.3 2-8.7 1.7-56l-.3-49.4-3.3-6.7c-6.2-12.7-17.3-20.1-32.1-21.4l-6.9-.7-.4-18.1c-.3-17.5-.4-18.3-3.1-23.8-5.4-11.1-15.2-18.5-27.2-20.7-6.9-1.3-49.9-1.3-56.5 0zm52.8 32.5c2.1 1.4 2.2 2.2 2.2 16V325h-53v-14.4c0-13.8.1-14.6 2.2-16 1.9-1.3 6-1.6 24.3-1.6s22.4.3 24.3 1.6zm43 64 2.2 1.5V405c0 39.4-.2 45-1.6 46.4-1.4 1.4-8.9 1.6-67.9 1.6h-66.4l-1.5-2.2c-1.4-2-1.6-8-1.6-46 0-42.5.1-43.9 2-45.8 2-2 3.3-2 67.3-2 57.4 0 65.5.2 67.5 1.6z"/>
    <path d="M193.5 271.1c-52.9 4.3-103.3 18.2-149.7 41.5-14.7 7.4-20.5 12.3-24.6 21.2l-2.7 5.7v96l3.1 6.5c1.7 3.6 5.1 8.5 7.5 10.9 2.4 2.4 7.3 5.8 10.9 7.5l6.5 3.1 114.9.3 114.8.2-.8-2.2c-.4-1.3-1-25.3-1.1-53.3-.3-44.1-.2-52 1.2-58.3 4.2-18.8 17.4-34.5 35.1-41.7l5.9-2.4.7-10.3c.5-5.7.9-11.4 1-12.7.3-2.3-.3-2.6-7.7-4.2-11.5-2.7-39.8-6.6-55.4-7.9-15.3-1.1-44.7-1.1-59.6.1z"/>
</svg>
