<svg version="1.0" xmlns="http://www.w3.org/2000/svg" width="682.667" height="682.667" viewBox="0 0 512 512">
  <path d="M185 2.8c0 2.8-.1 2.8-9.2 4.1C121.7 14.1 69.3 47 38.8 93c-16.5 24.8-28.3 55.5-31.9 82.7-1.3 9.2-1.3 9.3-4.1 9.3H0v30h2.8c2.8 0 2.9.1 4 9 5.7 42.7 26.3 83.6 57.7 114.4 33.2 32.6 76.7 52.6 123.2 56.5 36.4 3.2 78.8-7.9 113.9-29.5 6-3.7 7.9-4.4 12.3-4.4 4.7 0 5.2.2 6.1 2.7.6 1.6 1.8 4.6 2.7 6.8 1.2 2.9 18.1 20.5 63.7 66.3 56.8 56.9 62.7 62.6 69 65.7 3.8 1.9 7.5 3.5 8.2 3.5.9 0 1.4 1.1 1.4 3 0 2.9.2 3 4.5 3s4.5-.1 4.5-2.9c0-2.5.5-3 3.3-3.6 11-2.4 25.9-17.2 28.2-28.2.6-2.8 1.1-3.3 3.6-3.3 2.7 0 2.9-.2 2.9-4s-.2-4-3-4c-2.2 0-3-.5-3-1.8 0-.9-1.4-4.6-3.1-8.2-2.8-5.9-8.3-11.7-64.2-67.8-61.1-61.2-66.6-66.2-74.6-67.8-3-.6-3.1-.8-3.1-6.2 0-4.4.6-6.4 3.2-10.6 22.6-36.1 33.9-78.9 30.7-115.9-6-69.9-47.9-131.6-110.4-162.2-19.8-9.7-40.2-16-60.5-18.7-8.9-1.1-9-1.2-9-4V0h-30v2.8zM216.8 47c36.7 3.3 67.5 17.5 93.2 42.9 23.2 23.1 37.5 51.3 42.6 84.6 1.8 11.6 1.8 40.4 0 52-10.1 65.8-60.3 116-126.1 126.1-11.7 1.8-40.4 1.8-52 0-33.7-5.3-61.2-19.2-84.5-42.5-35.3-35.3-50-84.5-41.5-138.6 4.8-30.5 18.7-57.8 40.8-80.4 32.8-33.5 76.6-48.6 127.5-44.1z" fill="currentColor"/>
</svg>
