<svg version="1.0" xmlns="http://www.w3.org/2000/svg" width="682.667" height="682.667" viewBox="0 0 512 512">
  <g fill="currentColor">
    <path d="M233 1c-49.4 4.8-95 23-135 53.8C78.5 69.8 53.2 98 38.6 121c-6.3 9.9-18.6 35.1-23 47.1-4.9 13.4-10.2 34-12.8 49.9-3.1 19.5-3.1 56.5 0 76 4.5 27.6 11.6 49.8 23.7 74.5 13.2 26.9 26.9 46 48.9 68.1 22.1 22 41.2 35.7 68.1 48.9 24.7 12.1 46.9 19.2 74.5 23.7 19.5 3.1 56.5 3.1 76 0 27.6-4.5 49.8-11.6 74.5-23.7 26.9-13.2 46-26.9 68.1-48.9 22-22.1 35.7-41.2 48.9-68.1 8.8-17.9 13.2-29.6 18-47.6 6.3-24 7.8-37.1 7.8-64.9 0-27.8-1.5-40.9-7.8-64.9-4.8-18-9.2-29.7-18-47.6-13.2-26.9-26.9-46-48.9-68.1-22.1-22-41.2-35.7-68.1-48.9-24.6-12.1-47.4-19.3-74-23.5C279.8.7 247-.4 233 1zm46.8 40.1c48.8 5.3 93.4 27 128.8 62.3C450.1 144.9 472 197.7 472 256s-21.9 111.1-63.4 152.6S314.3 472 256 472s-111.1-21.9-152.6-63.4S40 314.3 40 256s21.9-111.1 63.4-152.6c34.9-34.9 80-56.9 127.6-62.3 11-1.2 37.6-1.3 48.8 0z"/>
    <path d="M151.5 235.5c-5.9 1.6-11.8 7.3-13.6 13.3-2.6 8.8 1.9 19 10.3 23.1l4.4 2.1h206.8l4.4-2.1c8.4-4.1 12.9-14.3 10.2-23.2-1.9-6.3-8.3-12.2-14.8-13.6-8.3-1.7-201-1.4-207.7.4z"/>
  </g>
</svg>
