<svg version="1.0" xmlns="http://www.w3.org/2000/svg" width="682.667" height="682.667" viewBox="0 0 512 512"><g fill="currentColor"><path d="M287.7 21.8c-.9.9-7.7 16.1-15.3 33.7-7.5 17.6-13.8 32.1-13.9 32.3-.2.2-7.4-13.1-16-29.5C226.5 28.1 223.9 24 221 24c-1.4 0-187 50.6-194.8 53.1-4.6 1.5-5.8 4.9-3.3 9.7 1.1 2 11.6 20.3 23.5 40.6C58.3 147.6 68 164.6 68 165.2c0 .5-8.2 16.4-18.2 35.4-15.7 30-18 34.9-17.2 37.1.7 2 5.2 4.9 20.7 13.1L73 261.2v69.7c0 54.2.3 70.1 1.2 71.4C75.6 404.1 256.6 492 259 492c2.4 0 183.4-87.9 184.8-89.7.9-1.3 1.2-17.2 1.2-71.4v-69.7l19.8-10.4c15.2-8.1 19.9-11.1 20.6-13 .7-2.1-1.7-7.4-17.3-37-9.9-19-18.1-35.2-18.1-35.9 0-.8 9-18.6 19.9-39.5 10.9-21 20.2-39.1 20.5-40.2 1.7-5.3 2.1-5.2-100.9-36.1-53.4-16-97.8-29.1-98.6-29.1-.9 0-2.3.8-3.2 1.8zm97.8 38.7c49 14.7 89.3 27 89.6 27.4.7.7-34.5 68.4-35.9 68.9-.7.2-170.8-57.4-171.9-58.3-.2 0 5.6-13.8 12.8-30.6 7.2-16.7 13.5-31.4 14-32.7.5-1.3 1.2-2.1 1.6-1.9.5.3 40.8 12.5 89.8 27.2zm-151.7 7.1c8.9 16.9 16.1 30.9 15.8 31.1-.2.2-36.6 12.8-80.7 27.9-44.2 15.1-82.7 28.3-85.6 29.3l-5.1 2-20.8-35.5C46 102.9 36.9 86.8 37.1 86.6c.2-.2 18-5.1 39.4-11C98 69.8 138.2 58.7 166 51.1c27.8-7.7 50.7-14 51-14 .3-.1 7.8 13.7 16.8 30.5zm109.4 69.6c45.5 15.6 82.8 28.5 82.8 28.8 0 .3-37.6 19.3-83.5 42.3L259 250l-83.5-41.7c-45.9-23-83.5-42-83.5-42.3 0-.7 164.1-56.8 166.5-56.9 1.1-.1 39.2 12.6 84.7 28.1zM234.4 292.1l-16.3 32.8-4.3-2.4c-4.3-2.3-159.9-85-165-87.6l-2.7-1.4 15.2-29c8.4-16 15.6-29.6 16-30.2.6-.9 25.6 11.1 87.1 41.9l86.4 43.2-16.4 32.7zm221.5-88.9c8.3 15.8 15.1 29.1 15.1 29.7 0 .9-12.2 7.5-107.5 58.1-22 11.7-45.3 24.1-51.8 27.6l-11.8 6.3-16.3-32.7-16.4-32.7 86.1-43.2c47.4-23.7 86.5-42.8 86.8-42.5.4.4 7.5 13.6 15.8 29.4zM152.4 303.5c36.7 19.5 67.5 35.5 68.5 35.5.9 0 2.4-.6 3.3-1.3.9-.6 7.7-13.4 15.2-28.2l13.5-27v96.7c.1 53.3-.1 96.8-.3 96.8-.2 0-37.9-18.1-83.7-40.3l-83.4-40.3-.3-63.7c-.1-35-.1-63.7.1-63.7s30.4 16 67.1 35.5zm280.4 28.2-.3 63.8-83 40.2c-45.6 22.1-83.3 40.2-83.7 40.2-.5.1-.8-43.4-.7-96.7v-96.7l13.9 27.7c12 23.7 14.4 27.9 16.6 28.4 3 .8-1.7 3.1 78.9-39.9 31.4-16.8 57.3-30.5 57.8-30.6.4-.1.6 28.6.5 63.6z"/><path d="M100 295c-2.6 2.6-2.7 9-.2 11.3 2.4 2.2 6.5 2.1 8.5-.1 3.8-4.2.8-13.2-4.3-13.2-1.1 0-2.9.9-4 2zM100 321c-1.9 1.9-2 3.3-2 31.5s.1 29.6 2 31.5c1.1 1.1 2.9 2 4 2s2.9-.9 4-2c1.9-1.9 2-3.3 2-31.5s-.1-29.6-2-31.5c-1.1-1.1-2.9-2-4-2s-2.9.9-4 2z"/></g></svg>