<svg version="1.0" xmlns="http://www.w3.org/2000/svg" width="682.667" height="682.667" viewBox="0 0 512 512">
  <path d="M56.7 17.6C37 22.3 22.2 37.3 17.5 57.2c-2.2 9.3-2.2 116.3 0 125.6 4.8 20.2 19.8 35.1 40 39.7 6.1 1.4 14.9 1.5 65.5 1.3 58.2-.3 58.5-.3 64.9-2.6 17.4-6.3 30.4-20.7 34.6-38.3 2.2-9.6 2.2-115.9-.1-125.7-4.6-20-19.5-34.9-39.6-39.7-9-2.1-117.3-2.1-126.1.1zm272 0c-19.7 4.7-34.5 19.7-39.2 39.6-2.2 9.3-2.2 116.3 0 125.6 4.8 20.2 19.8 35.1 40 39.7 6.1 1.4 14.9 1.5 65.5 1.3 58.2-.3 58.5-.3 64.9-2.6 17.4-6.3 30.4-20.7 34.6-38.3 2.2-9.6 2.2-115.9-.1-125.7-4.6-20-19.5-34.9-39.6-39.7-9-2.1-117.3-2.1-126.1.1zm-272 272c-19.7 4.7-34.5 19.7-39.2 39.6-2.2 9.3-2.2 116.3 0 125.6 4.8 20.2 19.8 35.1 40 39.7 6.1 1.4 14.9 1.5 65.5 1.3 58.2-.3 58.5-.3 64.9-2.6 17.4-6.3 30.4-20.7 34.6-38.3 2.2-9.6 2.2-115.9-.1-125.7-4.6-20-19.5-34.9-39.6-39.7-9-2.1-117.3-2.1-126.1.1zm319.8-.6c-9 1.4-22 5.7-31 10.2-25.4 12.7-44.3 35-52.8 62.3-18.7 59.8 20.6 122.9 82.8 133 69.6 11.4 130.4-49.4 119-119-6.7-41.5-36.5-73.8-78-84.6-9.2-2.3-30.4-3.4-40-1.9z" fill="currentColor"/>
</svg>
