<svg version="1.0" xmlns="http://www.w3.org/2000/svg" width="682.667" height="682.667" viewBox="0 0 512 512">
  <g fill="currentColor">
    <path d="M160 33.3c-4.9 1.6-13.3 10.2-14.8 15.3-.9 3.2-1.2 40.9-1.2 161.8V368h219.1l2.4 2.5c2.3 2.2 2.5 3.2 2.5 12v9.5h13.5c13.1 0 13.7.1 16 2.5 2.5 2.4 2.5 2.6 2.5 21.5s0 19.1-2.5 21.5c-2.3 2.4-2.9 2.5-16 2.5H368v9.5c0 8.8-.2 9.8-2.5 12-2.3 2.4-3 2.5-15 2.5-10.7 0-12.5.2-12.5 1.6 0 2.7 10.1 11.9 14.6 13.2 6.5 1.9 41.8 1.6 47.7-.4 4.8-1.6 11.7-8.1 14-13.2.9-2.1 1.3-49.9 1.7-210.8l.5-208 3.6-7.2 3.5-7.2-130 .1c-91.8.1-131.1.4-133.6 1.2zm101.5 33.2c1.6 1.5 2.5 3.6 2.5 5.5s-.9 4-2.5 5.5C259.1 80 258.9 80 240 80s-19.1 0-21.5-2.5c-1.6-1.5-2.5-3.6-2.5-5.5s.9-4 2.5-5.5c2.4-2.5 2.6-2.5 21.5-2.5s19.1 0 21.5 2.5zm120 0c1.6 1.5 2.5 3.6 2.5 5.5s-.9 4-2.5 5.5l-2.4 2.5h-86.2l-2.4-2.5c-1.6-1.5-2.5-3.6-2.5-5.5s.9-4 2.5-5.5l2.4-2.5h86.2l2.4 2.5zm-64 32c3.3 3.2 3.3 7.8 0 11l-2.4 2.5H180.9l-2.4-2.5c-1.6-1.5-2.5-3.6-2.5-5.5s.9-4 2.5-5.5l2.4-2.5h134.2l2.4 2.5zm64 0c1.6 1.5 2.5 3.6 2.5 5.5s-.9 4-2.5 5.5c-2.4 2.5-2.6 2.5-21.5 2.5s-19.1 0-21.5-2.5c-1.6-1.5-2.5-3.6-2.5-5.5s.9-4 2.5-5.5c2.4-2.5 2.6-2.5 21.5-2.5s19.1 0 21.5 2.5zm-144 32c1.6 1.5 2.5 3.6 2.5 5.5s-.9 4-2.5 5.5l-2.4 2.5h-54.2l-2.4-2.5c-1.6-1.5-2.5-3.6-2.5-5.5s.9-4 2.5-5.5l2.4-2.5h54.2l2.4 2.5zm144 0c1.6 1.5 2.5 3.6 2.5 5.5s-.9 4-2.5 5.5l-2.4 2.5H260.9l-2.4-2.5c-1.6-1.5-2.5-3.6-2.5-5.5s.9-4 2.5-5.5l2.4-2.5h118.2l2.4 2.5zm-80 32c1.6 1.5 2.5 3.6 2.5 5.5s-.9 4-2.5 5.5l-2.4 2.5H180.9l-2.4-2.5c-1.6-1.5-2.5-3.6-2.5-5.5s.9-4 2.5-5.5l2.4-2.5h118.2l2.4 2.5zm80 0c1.6 1.5 2.5 3.6 2.5 5.5s-.9 4-2.5 5.5l-2.4 2.5h-54.2l-2.4-2.5c-1.6-1.5-2.5-3.6-2.5-5.5s.9-4 2.5-5.5l2.4-2.5h54.2l2.4 2.5zm-120 48c1.6 1.5 2.5 3.6 2.5 5.5s-.9 4-2.5 5.5c-2.4 2.5-2.6 2.5-21.5 2.5s-19.1 0-21.5-2.5c-1.6-1.5-2.5-3.6-2.5-5.5s.9-4 2.5-5.5c2.4-2.5 2.6-2.5 21.5-2.5s19.1 0 21.5 2.5zm120 0c1.6 1.5 2.5 3.6 2.5 5.5s-.9 4-2.5 5.5l-2.4 2.5h-86.2l-2.4-2.5c-1.6-1.5-2.5-3.6-2.5-5.5s.9-4 2.5-5.5l2.4-2.5h86.2l2.4 2.5zm-64 32c3.3 3.2 3.3 7.8 0 11l-2.4 2.5H180.9l-2.4-2.5c-1.6-1.5-2.5-3.6-2.5-5.5s.9-4 2.5-5.5l2.4-2.5h134.2l2.4 2.5zm64 0c1.6 1.5 2.5 3.6 2.5 5.5s-.9 4-2.5 5.5c-2.4 2.5-2.6 2.5-21.5 2.5s-19.1 0-21.5-2.5c-1.6-1.5-2.5-3.6-2.5-5.5s.9-4 2.5-5.5c2.4-2.5 2.6-2.5 21.5-2.5s19.1 0 21.5 2.5zm-144 32c1.6 1.5 2.5 3.6 2.5 5.5s-.9 4-2.5 5.5l-2.4 2.5h-54.2l-2.4-2.5c-1.6-1.5-2.5-3.6-2.5-5.5s.9-4 2.5-5.5l2.4-2.5h54.2l2.4 2.5zm144 0c1.6 1.5 2.5 3.6 2.5 5.5s-.9 4-2.5 5.5l-2.4 2.5H260.9l-2.4-2.5c-1.6-1.5-2.5-3.6-2.5-5.5s.9-4 2.5-5.5l2.4-2.5h118.2l2.4 2.5zm-80 32c1.6 1.5 2.5 3.6 2.5 5.5s-.9 4-2.5 5.5l-2.4 2.5H180.9l-2.4-2.5c-1.6-1.5-2.5-3.6-2.5-5.5s.9-4 2.5-5.5l2.4-2.5h118.2l2.4 2.5zm80 0c1.6 1.5 2.5 3.6 2.5 5.5s-.9 4-2.5 5.5l-2.4 2.5h-54.2l-2.4-2.5c-1.6-1.5-2.5-3.6-2.5-5.5s.9-4 2.5-5.5l2.4-2.5h54.2l2.4 2.5zm-144 32c1.6 1.5 2.5 3.6 2.5 5.5s-.9 4-2.5 5.5l-2.4 2.5h-54.2l-2.4-2.5c-1.6-1.5-2.5-3.6-2.5-5.5s.9-4 2.5-5.5l2.4-2.5h54.2l2.4 2.5zm144 0c1.6 1.5 2.5 3.6 2.5 5.5s-.9 4-2.5 5.5l-2.4 2.5H260.9l-2.4-2.5c-1.6-1.5-2.5-3.6-2.5-5.5s.9-4 2.5-5.5l2.4-2.5h118.2l2.4 2.5zM448 33.3c-4.9 1.6-13.3 10.2-14.8 15.3-.8 2.7-1.2 11.7-1.2 25.8V96h48V74.4c0-13.9-.4-23.1-1.2-25.6-1.7-5.9-8.8-13.3-14.5-15.2-5.3-1.8-11.2-1.9-16.3-.3zM64 416v32h16v-64H64v32z"/>
    <path d="M96 421.6c0 26.7.4 38.9 1.2 41.8 1.6 5.5 9.9 13.8 15.4 15.4 3.1.9 29.7 1.2 109.6 1.2h105.4l-3.5-7.2-3.6-7.2-.3-40.8-.3-40.8H96v37.6zm240-5.6v32h16v-64h-16v32zm-304 0v8h16v-16H32v8zm336 0v8h16v-16h-16v8z"/>
  </g>
</svg>
