<svg version="1.0" xmlns="http://www.w3.org/2000/svg" width="682.667" height="682.667" viewBox="0 0 512 512">
  <path d="M212.1 1.6c-8.3 2.2-16.5 7.1-22.4 13.3-9.9 10.4-13.7 21-13.7 38.3v10.7l-48.7.3-48.8.3-6.7 3.2c-9.3 4.4-15.1 10-19.6 19.1l-3.7 7.6v23.7c0 22.4.1 23.9 2.1 26.5 1.1 1.5 3.3 3.7 4.8 4.8l2.7 2.1h395.8l2.7-2.1c1.5-1.1 3.7-3.3 4.8-4.8 2-2.6 2.1-4.1 2.1-26.5V94.4l-3.7-7.6c-4.5-9.1-10.3-14.7-19.6-19.1l-6.7-3.2-48.7-.3-48.8-.3V53.2c0-17.3-3.8-27.9-13.7-38.3-6.1-6.4-14.1-11.1-22.8-13.4-8.4-2.1-79.3-2.1-87.4.1zm84.5 33c6 4.4 6.9 6.7 7.2 18.5l.4 10.9H208v-9.4c0-10.2.9-13.7 4.3-17.5 4.6-5 5.6-5.1 44.9-4.8 35.3.2 36.8.3 39.4 2.3zm-222 151.6c-1.2 2-.5 20.8 5.4 143.3 3.8 77.5 7.3 143.2 8 146 3.9 16.9 19.3 31.7 36.8 35.4 7.5 1.5 254.9 1.5 262.4 0 17.2-3.6 31.8-17.3 36.5-34.3 1-3.6 3.4-46.3 8.2-146.6 6-123 6.7-141.8 5.5-143.8L436 184H76l-1.4 2.2zm110.2 24.5c1.4 1 3.5 3.2 4.6 4.7 2.1 2.7 2.1 3.2 2.1 112.6 0 109.4 0 109.9-2.1 112.6-3.9 5.3-7.1 6.9-13.4 6.9-6.3 0-9.5-1.6-13.4-6.9-2.1-2.7-2.1-3.5-2.4-109.9-.1-59 0-108.6.3-110.4.7-4 4.9-9.1 9-10.9 4-1.9 12-1.2 15.3 1.3zm80 0c1.4 1 3.5 3.2 4.6 4.7 2.1 2.7 2.1 3.2 2.1 112.6 0 109.4 0 109.9-2.1 112.6-3.9 5.3-7.1 6.9-13.4 6.9-6.3 0-9.5-1.6-13.4-6.9-2.1-2.7-2.1-3.5-2.4-109.9-.1-59 0-108.6.3-110.4.7-4 4.9-9.1 9-10.9 4-1.9 12-1.2 15.3 1.3zm80 0c1.4 1 3.5 3.2 4.6 4.7 2.1 2.7 2.1 3.2 2.1 112.6 0 109.4 0 109.9-2.1 112.6-3.9 5.3-7.1 6.9-13.4 6.9-6.3 0-9.5-1.6-13.4-6.9-2.1-2.7-2.1-3.5-2.4-109.9-.1-59 0-108.6.3-110.4.7-4 4.9-9.1 9-10.9 4-1.9 12-1.2 15.3 1.3z" fill="currentColor"/>
</svg>
