<svg version="1.0" xmlns="http://www.w3.org/2000/svg" width="682.667" height="682.667" viewBox="0 0 512 512"><g fill="currentColor"><path d="M245 19.5c-.8.2-4.9.9-9 1.5-21.5 3.5-43.8 15.6-59.8 32.4-11.7 12.4-20.8 27.7-25.4 43.1-1.1 3.8-2.3 7.3-2.7 7.7-.3.3-7.1 1.8-15.1 3.2-59.6 10.6-99.1 28.8-110.8 51.1-3.6 6.9-3.8 17.9-.3 24.5 11.1 21.4 45.9 38.3 101.2 49.5 14.6 2.9 16.1 3.4 21.1 7.1 20.8 15.7 48.8 26.9 80.3 32 14.9 2.5 47.6 2.5 62.5.2 30.9-5 58.5-15.8 79.4-31.1 6.8-5 7.2-5.2 23-8.4 54-10.9 89.7-28.1 100.2-48.3 2.4-4.6 2.8-6.7 2.8-13s-.4-8.4-2.8-12.9c-9.2-17.6-36.2-32.7-78.1-43.6-11.1-2.9-19.2-4.6-43.9-9.3-3.8-.7-3.9-.8-6.7-9.3-12.3-38.1-43.2-66.1-82.2-74.5-6.6-1.4-30.2-2.8-33.7-1.9zm27.3 15c36.9 6.4 66.9 34 76.9 70.6 2 7.2 2.3 10.8 2.3 24.6 0 9.5-.4 16.6-1 17.2-1.3 1.3-27.6 6.6-42.5 8.6-31.5 4.1-71.3 4.1-103.5 0-15.2-2-41.7-7.3-43-8.6-.6-.6-1-7.7-1-17.2 0-13.8.3-17.4 2.3-24.6 13.3-48.6 60.7-79.1 109.5-70.6zM148 151.8c.7 3.4 2 5.8 3.4 6.7 2.6 1.7 18.8 5.6 34.9 8.4 23.4 4.1 40.9 5.4 69.7 5.4 28.7 0 46.1-1.3 69.7-5.3 17.3-3 33-6.9 35.3-8.8 2.8-2.4 5-14.7 5-28.4 0-9.9.2-10.9 1.8-10.4.9.2 6.9 1.4 13.2 2.6 48.9 9.1 88 26.2 96.1 42.3 11.8 23-42.4 49.1-125.1 60.2-74.1 9.9-158.3 7.8-225.3-5.7-64.7-12.9-101.8-35-91.8-54.5 8.2-16.2 47.9-33.5 97.6-42.6l13-2.4.6 13.6c.4 7.5 1.2 16 1.9 18.9zm42 90.2c6.3.5 23.6 1.5 38.4 2.2 28.7 1.2 69.2.1 97.6-2.6 7.4-.8 13.6-1.2 13.8-1.1.6.5-18.6 8.4-26.3 10.8-44.4 13.8-96 10.8-135-7.9-5.9-2.8-6.4-3.2-3.5-2.9 1.9.3 8.7.9 15 1.5z"/><path d="M406 189.1c-20.7 6-51 11.7-71.3 13.5-9.2.8-12.7 2.9-12.7 7.5 0 4.1 3.2 6.9 7.8 6.9 15.4 0 58.3-8 86.7-16.1 7.3-2.1 11.5-5.4 11.5-9 0-2.5-4.3-6.9-6.7-6.8-1 .1-7.9 1.9-15.3 4zM135.5 273.4c-1.5 1-6.1 21.6-23.6 105.7C99.9 436.5 90 484.7 90 486.2c0 5.7 6.4 8.7 11 5 1.9-1.6 4.8-14.4 24.1-106.7 12-57.8 21.9-105.8 21.9-106.7 0-4.6-7.4-7.5-11.5-4.4zM367 274c-1.1 1.1-2 2.8-2 3.8 0 .9 9.9 48.9 21.9 106.7 19.3 92.4 22.2 105.1 24.1 106.7 4.6 3.7 11 .7 11-4.9 0-1.6-9.9-49.8-21.9-107.2-17.5-84-22.2-104.7-23.6-105.8-2.7-1.9-7.2-1.6-9.5.7zM200.1 286.6c-1.2 1.5-2.1 3.6-2.1 4.8 0 1.1-2.7 45.4-6.1 98.4-4.3 66.2-6 97.1-5.3 99 2.2 6.3 11.2 5 12.7-1.8.7-3.5 12.7-187.9 12.7-195.6 0-4.9-2.3-7.4-6.8-7.4-2.1 0-3.7.8-5.1 2.6zM301.7 285.8c-1 1.1-1.7 3.5-1.7 5.8 0 7.6 12 192 12.7 195.4 1.5 6.4 9.9 8.1 12.5 2.4.9-2-.1-23.3-5.1-101.2-7-109-6.3-103.4-13.3-104-2.3-.2-3.9.3-5.1 1.6z"/></g></svg>