<svg version="1.0" xmlns="http://www.w3.org/2000/svg" width="682.667" height="682.667" viewBox="0 0 512 512" fill="currentColor">
    <path d="M215 16.6c-1.4.2-5.2.9-8.5 1.5-32.8 5.6-64 29.1-79 59.4-8.6 17.5-11.9 31.9-11.8 51.5.1 18.5 3.4 32.5 11.8 49.5 5.4 10.9 11 18.5 21.2 28.8 11.9 12 25.7 20.6 42.3 26.4 13.3 4.7 20.8 5.8 38 5.7 13.2-.1 16.9-.5 25.1-2.7 13.2-3.5 22.9-7.7 33.5-14.5 23.5-15.2 40.9-39 48.1-65.7 2.4-9.2 2.7-11.6 2.7-28.5s-.3-19.3-2.7-28.5C328.5 73 311.4 49.4 288 34c-17.4-11.4-35.5-16.9-57-17.5-7.4-.2-14.6-.2-16 .1zM368.4 262.1c-4.5 1.3-10 7.8-10.9 12.8-.9 5.3 2.5 12.6 7.4 15.8 3.3 2.2 4.2 2.3 27.5 2.3 20.2 0 24.5.3 26.4 1.6 2.1 1.4 2.2 2.2 2.2 16V325h-46c-29.7 0-47.8.4-51.2 1.1-11.5 2.4-21.1 9.6-26.2 19.6-4.4 8.8-4.8 13.6-4.4 63.3.3 45.7.4 46.6 2.6 52.2 4.2 10.4 13.7 19.4 23.5 22.3 7.6 2.2 142.8 2.3 150.4 0 11.4-3.4 20.8-12.9 24.4-24.6 1.9-6.3 2-8.7 1.7-56l-.3-49.4-3.3-6.7c-6.2-12.7-17.3-20.1-32.1-21.4l-6.9-.7-.4-18.1c-.3-17.5-.4-18.3-3.1-23.8-5.4-11.1-15.2-18.4-27.7-20.8-6.5-1.2-49.3-1.2-53.6.1zm93.4 96.5c2.2 1.5 2.2 1.5 2.2 46.4 0 39.4-.2 45-1.6 46.4-1.4 1.4-8.9 1.6-67.9 1.6h-66.4l-1.5-2.2c-1.4-2-1.6-8-1.6-46 0-42.6.1-43.9 2-45.8 2-2 3.2-2 67.4-2 56.6.1 65.6.3 67.4 1.6z"/>
    <path d="M198.5 270.7c-52.8 3.5-107.4 18.2-153.8 41.4-15.7 7.9-21.3 12.7-25.5 21.7l-2.7 5.7v96l3.1 6.5c1.7 3.6 5.1 8.5 7.5 10.9 2.4 2.4 7.3 5.8 10.9 7.5l6.5 3.1 114.9.3 114.8.2-.8-2.2c-.4-1.3-1-25.3-1.1-53.3-.3-44.1-.2-52 1.2-58.3 2.5-11.1 7.7-20.5 15.9-28.7 12.5-12.4 26-17.5 46.3-17.5H347l-3.4-4.4c-1.9-2.5-4.2-6.5-5.1-9-1.6-4.2-2.1-4.6-7.4-6.2-20.2-5.9-52.3-11.4-78-13.4-12.4-.9-42.5-1.1-54.6-.3z"/>
</svg>
